<?xml version="1.0" encoding="utf-8"?>
<!-- Generator: Adobe Illustrator 22.0.0, SVG Export Plug-In . SVG Version: 6.00 Build 0)  -->
<svg version="1.1" id="Layer_1" xmlns="http://www.w3.org/2000/svg" xmlns:xlink="http://www.w3.org/1999/xlink" x="0px" y="0px"
	 viewBox="0 0 293.7 45.7" style="enable-background:new 0 0 293.7 45.7;" xml:space="preserve">
<style type="text/css">
	.st0{fill:#FFFFFF;}
	.st1{fill:#CFF5FF;}
</style>
<g>
	<path class="st0" d="M68.2,38.1H52.1V8.8h3.1v26.5h13.1L68.2,38.1L68.2,38.1z"/>
	<path class="st0" d="M70.3,38.1L81.6,8.8h2.8l10.2,29.3h-3.5l-2.2-6.7H76l-2.5,6.7H70.3z M82.9,13.1l-5.8,15.5H88L82.9,13.1
		L82.9,13.1z"/>
	<path class="st0" d="M121.2,8.8v15.5c0,4.7-0.9,8.3-2.7,10.7c-1.8,2.4-4.6,3.6-8.5,3.6c-7.4,0-11.1-4.8-11.1-14.3V8.8h3.1v16.7
		c0,3.4,0.7,5.9,2.1,7.7c1.4,1.7,3.4,2.6,5.9,2.6s4.5-0.9,5.9-2.6c1.4-1.7,2.1-4.3,2.1-7.7V8.8H121.2z"/>
	<path class="st0" d="M152.3,38.1H150l-17.5-23.5v23.5h-2.9V8.8h2.3l17.4,23.5V8.8h2.9v29.3H152.3z"/>
	<path class="st0" d="M181.7,33.8l1.6,2.4c-2.5,1.6-5.3,2.4-8.2,2.4c-4.6,0-8.3-1.4-11.3-4.2s-4.5-6.5-4.5-10.9
		c0-4.3,1.5-7.9,4.6-10.8s6.8-4.4,11.2-4.4c2.7,0,5.2,0.7,7.3,2l-1.4,2.4c-1.9-1-3.9-1.5-5.9-1.5c-3.6,0-6.6,1.2-8.9,3.5
		c-2.4,2.3-3.5,5.3-3.5,8.8c0,3.7,1.1,6.7,3.4,9c2.3,2.2,5.3,3.4,9.1,3.4C177.4,35.7,179.6,35.1,181.7,33.8z"/>
	<path class="st0" d="M212.2,38.1h-3.1V24.3h-16.9v13.8h-3.1V8.8h3.1v12.6h16.9V8.8h3.1V38.1z"/>
</g>
<g>
	<path class="st0" d="M217.4,8.8h8.5c1.7,0,3.2,0.3,4.7,0.8s2.7,1.5,3.8,2.8c1.1,1.3,1.6,3,1.6,5c0,1.5-0.3,2.8-0.9,4
		c-0.6,1.2-1.4,2.1-2.4,2.7c-1,0.6-2.1,1.1-3.2,1.4c-1.1,0.3-2.3,0.5-3.6,0.5h-5.4v12.1h-3.1V8.8z M220.4,11.6v11.5h4.3
		c5.2,0,7.8-1.9,7.8-5.7c0-1.8-0.6-3.2-1.9-4.3c-1.3-1-3-1.6-5-1.6L220.4,11.6L220.4,11.6z"/>
	<path class="st0" d="M235.9,38.1l11.3-29.3h2.8l10.2,29.3h-3.5l-2.2-6.7h-12.9l-2.5,6.7H235.9z M248.6,13.1l-5.8,15.5h10.9
		L248.6,13.1L248.6,13.1z"/>
	<path class="st0" d="M265.4,38.1V8.8h7.6c1.5,0,3,0.2,4.5,0.5s2.9,0.9,4.2,1.6c1.4,0.7,2.5,1.7,3.5,2.7c1,1.1,1.8,2.5,2.4,4.1
		c0.6,1.7,0.9,3.5,0.9,5.6c0,2.6-0.5,4.9-1.4,6.8c-0.9,2-2.1,3.5-3.7,4.6s-3.3,1.9-5.1,2.5c-1.8,0.5-3.8,0.8-5.8,0.8L265.4,38.1
		L265.4,38.1z M268.5,35.2h1.7c4.9,0,8.6-0.9,11.2-2.6c2.6-1.8,3.9-4.7,3.9-8.9c0-3.9-1.1-6.9-3.4-9s-5.5-3.1-9.7-3.1h-3.7V35.2z"/>
</g>
<g>
	<path class="st1" d="M25,36.2c-1.3,2-2.4,4-3.7,5.9c-0.2,0.3-0.4,0.6-0.7,0.4C20.2,42.4,20,42,20,41.6c0-1.4,0-2.8,0-4.1
		c0-1.6,0-3.2,0-4.8c0-0.7,0.2-1.2,0.6-1.7c2.2-2.4,4.3-4.8,6.5-7.2c3.1-3.4,6.3-6.8,9.4-10.2c0.1-0.1,0.1-0.2,0.2-0.2
		c0.1-0.3,0.3-0.4,0.4-0.5c-0.2,0.2-0.4,0.4-0.6,0.4c-4.6,3.9-9.1,7.6-13.7,11.4c-2.2,1.8-4.4,3.6-6.6,5.5c-0.4,0.3-0.6,0-0.9,0
		c-2-0.7-4-1.4-6.1-2.1c-0.8-0.3-1.6-0.6-2.4-0.8C6.4,27,6.2,26.8,6,26.6c-0.4-0.4-0.4-1-0.1-1.5c0.2-0.2,0.5-0.4,0.7-0.5
		c2.5-1.5,5.1-2.9,7.7-4.4c0.8-0.3,1.5-0.8,2.3-1.3c4.3-2.4,8.6-4.8,12.9-7.3c0.1-0.1,0.2-0.1,0.2-0.2c1.7-1,3.4-1.9,5.1-2.9
		c2.3-1.3,4.6-2.6,6.9-3.9c0.3-0.2,0.5-0.3,0.8-0.4c0.7-0.2,1.2,0.2,1.2,0.8c0,0.7-0.2,1.4-0.3,2.1c-0.2,1.5-0.4,3.1-0.7,4.7
		c-0.3,2-0.6,3.9-0.9,5.9c-0.3,1.6-0.5,3.3-0.7,5c-0.1,0.9-0.4,1.8-0.4,2.8c-0.3,1.1-0.4,2.1-0.5,3.2c-0.4,2.5-0.7,5-1.1,7.5
		c-0.2,1.3-1.2,1.9-2.4,1.4c-0.2-0.1-0.4-0.2-0.6-0.2c-1.6-0.5-3.2-1.1-4.7-1.6c-1.6-0.6-3.2-1.1-4.8-1.7c-0.3-0.1-0.3,0-0.4,0.2
		C25.9,34.9,25.4,35.5,25,36.2z"/>
</g>
</svg>
